<?xml version="1.0" standalone="no"?>
<!DOCTYPE svg PUBLIC "-//W3C//DTD SVG 20010904//EN"
 "http://www.w3.org/TR/2001/REC-SVG-20010904/DTD/svg10.dtd">
<svg version="1.0" xmlns="http://www.w3.org/2000/svg"
 width="512.000000pt" height="512.000000pt" viewBox="0 0 512.000000 512.000000"
 preserveAspectRatio="xMidYMid meet">
<metadata>
Created by potrace 1.14, written by Peter Selinger 2001-2017
</metadata>
<g transform="translate(0.000000,512.000000) scale(0.100000,-0.100000)"
fill="#000000" stroke="none">
<path d="M743 5105 c-284 -52 -521 -230 -648 -488 -25 -51 -55 -130 -68 -177
l-22 -85 0 -1795 0 -1795 22 -85 c84 -318 335 -569 653 -653 l85 -22 1795 0
1795 0 85 22 c318 84 569 335 653 653 l22 85 0 1795 0 1795 -22 85 c-83 316
-329 563 -648 653 l-80 22 -1775 2 c-1425 1 -1789 -1 -1847 -12z m3274 -1088
l63 -64 0 -1393 0 -1393 -63 -64 -64 -63 -1402 2 -1402 3 -53 55 -53 55 -6
1383 c-6 1152 -5 1388 7 1415 7 18 36 53 64 80 l51 47 1397 0 1397 0 64 -63z
m-3049 -1214 l3 -33 -419 0 -420 0 5 23 c3 12 7 28 9 35 3 10 90 12 411 10
l408 -3 3 -32z m4017 -3 l0 -35 -410 0 -410 0 -3 23 c-8 54 -25 52 415 50
l408 -3 0 -35z m-4017 -347 l3 -33 -420 0 -421 0 0 28 c0 16 3 32 7 35 4 4
191 6 417 5 l411 -3 3 -32z m4027 -3 l0 -35 -415 0 -415 0 -3 23 c-8 55 -26
52 420 50 l413 -3 0 -35z m-4027 -347 l3 -33 -399 0 -400 0 -5 27 c-3 16 -3
31 0 36 2 4 183 6 401 5 l397 -3 3 -32z m3989 21 c3 -8 1 -26 -6 -40 l-11 -24
-387 2 -388 3 -3 23 c-8 54 -23 52 398 52 345 0 391 -2 397 -16z m-3989 -371
l3 -33 -349 0 -350 0 -10 29 c-6 16 -8 32 -5 35 3 3 164 4 357 3 l351 -2 3
-32z m3897 27 c3 -5 0 -22 -7 -37 l-13 -28 -340 0 -340 0 -3 23 c-8 54 -19 52
352 52 218 0 347 -4 351 -10z m-3897 -377 l3 -33 -270 0 -270 0 -15 29 c-9 16
-13 31 -9 34 3 3 130 5 282 4 l276 -2 3 -32z m3752 23 c0 -7 -9 -25 -21 -40
l-21 -26 -256 2 -257 3 -3 23 c-8 53 -13 52 283 52 226 0 275 -2 275 -14z"/>
<path d="M1132 3987 l-42 -43 0 -467 0 -467 1470 0 1470 0 0 463 0 463 -48 47
-48 47 -1380 0 -1380 0 -42 -43z"/>
<path d="M1090 2910 l0 -50 1468 2 1467 3 3 48 3 47 -1470 0 -1471 0 0 -50z"/>
<path d="M1730 2285 l0 -531 44 -43 43 -42 183 0 183 0 43 42 44 43 0 531 0
530 -270 0 -270 0 0 -530z"/>
<path d="M2830 2285 l0 -531 44 -43 43 -42 183 0 183 0 43 42 44 43 0 531 0
530 -270 0 -270 0 0 -530z"/>
<path d="M1954 1605 c-3 -6 -3 -122 -2 -259 l3 -249 45 0 45 0 0 258 0 258
-44 1 c-24 0 -45 -4 -47 -9z"/>
<path d="M3054 1605 c-3 -6 -3 -122 -2 -259 l3 -249 45 0 45 0 0 258 0 258
-44 1 c-24 0 -45 -4 -47 -9z"/>
</g>
</svg>
